<?xml version="1.0" encoding="utf-8"?>
<!-- Generator: Adobe Illustrator 24.2.3, SVG Export Plug-In . SVG Version: 6.00 Build 0)  -->
<svg version="1.1" id="Layer_1" xmlns="http://www.w3.org/2000/svg" xmlns:xlink="http://www.w3.org/1999/xlink" x="0px" y="0px"
	 viewBox="0 0 1190.6 841.9" style="enable-background:new 0 0 1190.6 841.9;" xml:space="preserve">
<style type="text/css">
	.st0{fill:#00467D;}
	.st1{fill:#42B6E9;}
</style>
<path class="st0" d="M572.5,772.8c5.6,12.8,11.2,25.5,16.8,38.3c75.8-125.4,151.7-250.9,227.5-376.3c-7.6-18.6-15.2-37.1-22.9-55.7
	C727,492.5,660,606,593,719.5c-75.5-164.9-151-329.7-226.5-494.6c-7.6,15.1-15.2,30.2-22.9,45.2C269.8,411.8,195.9,553.4,122,695.1
	c10.4,0,18.3,0,23.7,0c2.6,0,6.6,0,12.8,0c5.1,0,9.2,0,11.9,0h2.6h0.1c81.8,0.4,163.7,0.9,245.5,1.3c8-13.8,15.9-27.7,23.9-41.5
	H191.6c58.5-108.5,117.1-217.1,175.6-325.6L572.5,772.8z"/>
<path class="st1" d="M784.9,30.8c-10,16.2-20,32.5-29.9,48.7c0,0,0,0,0,0C684.4,191,613.8,302.5,543.3,413.9
	c7.2,15.7,14.4,31.5,21.6,47.2c70.4-110.9,140.8-221.8,211.2-332.6c75.4,174.8,150.7,349.6,226.1,524.4H775.7
	c5.8,14.5,11.5,29,17.3,43.5c76,0,151.9,0,227.9,0c8.3,0,16.6,0,24.9,0c7.6,0,15.2,0,22.8,0C974,474.5,879.4,252.7,784.9,30.8z"/>
</svg>
